<svg width="18" height="18" version="1.1" viewBox="0 0 18 18" xmlns="http://www.w3.org/2000/svg">
 <path d="m4.9001 4.4222h-2.193-0.01c-0.3 0-0.358 0.089-0.38 0.128a0.848 0.848 0 0 0-0.109 0.412c-0.01 3.451-0.01 6.961-0.01 10.354v1.422c0 0.071 0 0.134 0.01 0.192a0.307 0.307 0 0 0 0.257 0.281 1.322 1.322 0 0 0 0.367 0.045h11.219 1.095c0.524 0 0.645-0.1 0.645-0.551q0-2.6 0-5.19v-0.677q0-0.785 0-1.571c0-1.429 0-2.907 0.01-4.361a0.478 0.478 0 0 0-0.146-0.374 0.625 0.625 0 0 0-0.415-0.117c-0.437 0.011-0.879 9e-3 -1.307 7e-3h-1.056c-0.469 9e-3 -0.548-0.265-0.567-0.47l-0.012-0.142a5.3 5.3 0 0 0-0.155-1.027 3.218 3.218 0 0 0-3.3-2.025 3.367 3.367 0 0 0-2.562 1.238 2.579 2.579 0 0 0-0.585 1.735v0.048c0 0.272 0 0.421-0.131 0.536a0.675 0.675 0 0 1-0.484 0.1zm2.776-2.534a2.662 2.662 0 0 1 2.226-0.2 2.141 2.141 0 0 1 1.427 1.489 2.947 2.947 0 0 1 0.057 0.476c0.01 0.083 0.01 0.162 0.019 0.24a0.433 0.433 0 0 1-0.121 0.39 0.626 0.626 0 0 1-0.427 0.139h-0.029c-0.438-7e-3 -0.886-6e-3 -1.318 0h-1.047-1.3c-0.254 0-0.557-0.078-0.572-0.486a2.111 2.111 0 0 1 1.086-2.048zm-2.116 3.445a0.445 0.445 0 0 1 0.137 0.368c-0.011 0.426-0.011 0.864 0 1.3a0.38 0.38 0 0 0 0.27 0.381 0.465 0.465 0 0 0 0.5-0.079 0.326 0.326 0 0 0 0.128-0.294v-0.6-0.731a0.428 0.428 0 0 1 0.131-0.342 0.592 0.592 0 0 1 0.391-0.119h3.77a0.592 0.592 0 0 1 0.393 0.12 0.444 0.444 0 0 1 0.135 0.359c-0.01 0.472-0.01 0.932 0 1.367 0 0.137 0.049 0.274 0.354 0.353a0.423 0.423 0 0 0 0.421-0.134 0.68 0.68 0 0 0 0.121-0.34c0.02-0.408 0.013-0.826 0.01-1.231v-0.047a0.416 0.416 0 0 1 0.131-0.334 0.569 0.569 0 0 1 0.381-0.113c0.449 7e-3 0.977 0.012 1.5 0a0.635 0.635 0 0 1 0.433 0.119 0.471 0.471 0 0 1 0.148 0.381c-0.01 1.312-0.01 2.647 0 3.937q0 0.593 0 1.187v1.089q0 2 0 3.994c0 0.2 0 0.342-0.129 0.451a0.754 0.754 0 0 1-0.521 0.107h-10.536a0.668 0.668 0 0 1-0.483-0.108c-0.118-0.106-0.118-0.239-0.118-0.424v-2.192c0-2.634 0-5.358-0.01-8.037a0.478 0.478 0 0 1 0.15-0.388 0.647 0.647 0 0 1 0.448-0.117c0.435 0.013 0.907 0.013 1.443 0a0.614 0.614 0 0 1 0.402 0.117z" stroke="#000" stroke-width=".55" data-name="Контур 9"/>
</svg>
