<svg xmlns="http://www.w3.org/2000/svg" width="15.842" height="15.923" viewBox="0 0 15.842 15.923">
  <g transform="translate(0.325 0.418)">
    <path d="M1557.644,1402.312a6.5,6.5,0,0,1,11.59-4.038,6.327,6.327,0,0,1,.356,7.573c-.461.674-.326.989.188,1.465.932.862,1.808,1.784,2.7,2.686.246.248.549.536.183.873-.313.288-.579.022-.81-.21-1.143-1.143-2.27-2.3-3.438-3.421-.5-.476-.418-.809-.01-1.306a5.6,5.6,0,1,0-8.731-.226,5.655,5.655,0,0,0,6.438,1.875c.385-.142.643-.37.831.1.2.453-.165.614-.565.758A6.483,6.483,0,0,1,1557.644,1402.312Z" transform="translate(-1557.644 -1395.808)" stroke="#000" stroke-width="0.65"/>
  </g>
</svg>
