<svg width="20" height="20" version="1.1" viewBox="0 0 20 20" xmlns="http://www.w3.org/2000/svg">
 <path d="m1.6618 18.377c0.08-0.295 0.15-0.56 0.223-0.825 0.306-1.12 0.615-2.239 0.916-3.36a0.357 0.357 0 0 0-0.038-0.239 8.286 8.286 0 0 1-0.98-3.107 8.149 8.149 0 0 1 1.143-5.2 8.188 8.188 0 0 1 3.632-3.253 8.091 8.091 0 0 1 4.184-0.735 8.13 8.13 0 0 1 5.094 2.337 8.121 8.121 0 0 1 1.927 2.888 8.253 8.253 0 0 1 0.559 3.547 8.215 8.215 0 0 1-0.519 2.429 8.243 8.243 0 0 1-2.183 3.21 8.151 8.151 0 0 1-3.712 1.954 8.233 8.233 0 0 1-4.85-0.339c-0.308-0.116-0.6-0.273-0.9-0.405a0.311 0.311 0 0 0-0.188-0.023q-2.06 0.534-4.117 1.075c-0.055 0.014-0.106 0.026-0.191 0.046zm5.641-12.276a0.843 0.843 0 0 0-0.7 0.2 2.488 2.488 0 0 0-0.581 0.793 2.615 2.615 0 0 0 0.075 2.18 7.286 7.286 0 0 0 0.812 1.311 9 9 0 0 0 2.094 2.125 7.533 7.533 0 0 0 2.223 1.013 2.981 2.981 0 0 0 1.373 0.169 1.772 1.772 0 0 0 1.651-1.764 0.347 0.347 0 0 0-0.215-0.352c-0.351-0.167-0.7-0.345-1.047-0.513-0.22-0.1-0.443-0.206-0.67-0.293a0.279 0.279 0 0 0-0.375 0.122c-0.163 0.211-0.324 0.424-0.5 0.626-0.239 0.278-0.244 0.408-0.747 0.191a5.66 5.66 0 0 1-2.633-2.316c-0.157-0.257-0.135-0.321 0.056-0.548a5.569 5.569 0 0 0 0.485-0.68 0.381 0.381 0 0 0 0.017-0.3c-0.215-0.546-0.446-1.087-0.673-1.628a0.489 0.489 0 0 0-0.528-0.338c-0.041 4e-3 -0.082 4e-3 -0.117 4e-3z" data-name="Контур 12"/>
</svg>
