<svg width="18" height="18" version="1.1" viewBox="0 0 18 18" xmlns="http://www.w3.org/2000/svg">
 <path d="m17.15 5.8387c0-0.034 0-0.068-5e-3 -0.1a0.064 0.064 0 0 0 0-9e-3c-9e-3 -0.021-8e-3 -0.023 0-0.016s0-0.013-6e-3 -0.019a0.219 0.219 0 0 1-0.011-0.091 4.166 4.166 0 0 0-3.193-3.887 4.4 4.4 0 0 0-4.941 2.621c-1.054-2.008-2.646-3.05-4.98-2.6a4.06 4.06 0 0 0-3.173 3.9c0 0.247 0.01 0.65 0.01 0.7v0.447c0.062 0.327 0.114 0.667 0.2 1a9.646 9.646 0 0 0 2.075 3.784 22.9 22.9 0 0 0 5.622 4.727 0.4 0.4 0 0 0 0.472 0c0.584-0.392 1.184-0.762 1.752-1.175a20.277 20.277 0 0 0 4.226-4 9.248 9.248 0 0 0 1.716-3.347c0.092-0.359 0.145-0.728 0.215-1.088v0.011c0-0.026 7e-3 -0.049 7e-3 -0.049l9e-3 -0.043v-0.018c0-0.017 0-0.034 5e-3 -0.052s6e-3 -0.047 9e-3 -0.07v-0.539l-9e-3 -0.087zm-1 2.116a9.692 9.692 0 0 1-1.922 3.266 22.135 22.135 0 0 1-4.765 4.11c-0.123 0.082-0.253 0.155-0.372 0.242a0.172 0.172 0 0 1-0.225 0 25.686 25.686 0 0 1-2.8-2.047 17.7 17.7 0 0 1-2.741-2.809 8.476 8.476 0 0 1-1.673-3.356c-0.083-0.39-0.114-0.791-0.142-1a4.394 4.394 0 0 1 0.793-2.778 3.345 3.345 0 0 1 3.8-1.094 3.859 3.859 0 0 1 2.468 2.788c0.028 0.1 0.048 0.2 0.072 0.307a0.356 0.356 0 0 0 0.353 0.323 0.355 0.355 0 0 0 0.337-0.323 4.365 4.365 0 0 1 0.5-1.374 3.529 3.529 0 0 1 3.458-1.9 3.159 3.159 0 0 1 2.877 2.2 5.087 5.087 0 0 1-0.015 3.445z" stroke="#000" stroke-width=".75" data-name="Контур 8"/>
</svg>
